<svg width="30" height="30" viewBox="0 0 30 30" fill="none" xmlns="http://www.w3.org/2000/svg">
<path d="M0.52 15C0.52 11 1.93333 7.58667 4.76 4.76C7.58667 1.93333 11 0.52 15 0.52C19 0.52 22.4133 1.93333 25.24 4.76C28.0667 7.58667 29.48 11 29.48 15C29.48 19 28.0667 22.4133 25.24 25.24C22.4133 28.0667 19 29.48 15 29.48C11 29.48 7.58667 28.0667 4.76 25.24C1.93333 22.4133 0.52 19 0.52 15ZM15 28.28C18.6267 28.28 21.72 26.9867 24.28 24.4C26.8667 21.8133 28.16 18.68 28.16 15C28.16 11.32 26.8667 8.18667 24.28 5.6C21.72 3.01333 18.6267 1.72 15 1.72C11.3467 1.72 8.22667 3.01333 5.64 5.6C3.08 8.18667 1.8 11.32 1.8 15C1.8 18.68 3.08 21.8133 5.64 24.4C8.22667 26.9867 11.3467 28.28 15 28.28ZM20.88 12.4C20.88 14.4533 20.04 15.9067 18.36 16.76L21.44 22.4H18.08L15.48 17.4H15.24H13.32V22.4H10.24V7.6H15.24C16.9467 7.6 18.3067 8.05333 19.32 8.96C20.36 9.86667 20.88 11.0133 20.88 12.4ZM15.24 10.48H13.32V14.6H15.24C16.04 14.6 16.6667 14.4133 17.12 14.04C17.5733 13.6667 17.8 13.1733 17.8 12.56C17.8 11.1733 16.9467 10.48 15.24 10.48Z" fill="#121212"/>
</svg>
