<svg width="78" height="53" viewBox="0 0 78 53" fill="none" xmlns="http://www.w3.org/2000/svg">
<path d="M11.4384 12.2686V9.67273H20.3551C20.4461 10.1307 20.5 10.6738 20.5 11.2639C20.5 13.2099 19.9539 15.6193 18.1928 17.3354C16.4801 19.0732 14.2936 20 11.392 20C6.01779 20 1.5 15.7369 1.5 10.5C1.5 5.26305 6.01779 1 11.392 1C14.3642 1 16.4801 2.135 18.0739 3.61757L16.1958 5.44769C15.0552 4.40501 13.5097 3.59404 11.392 3.59404C7.46862 3.59404 4.40164 6.67502 4.40164 10.5C4.40164 14.325 7.46862 17.406 11.392 17.406C13.9369 17.406 15.3859 16.4103 16.3147 15.5052C17.0708 14.7685 17.5686 13.7131 17.7618 12.2686H11.4384Z" fill="#4285F4"/>
<path d="M34 14C34 17.4555 31.306 20 28 20C24.694 20 22 17.4537 22 14C22 10.5232 24.694 8 28 8C31.306 8 34 10.5232 34 14ZM31.3732 14C31.3732 11.8408 29.8113 10.3634 28 10.3634C26.1887 10.3634 24.6268 11.8408 24.6268 14C24.6268 16.1361 26.1887 17.6366 28 17.6366C29.8113 17.6384 31.3732 16.1379 31.3732 14Z" fill="#EA4335"/>
<path d="M47 14C47 17.4555 44.306 20 41 20C37.694 20 35 17.4537 35 14C35 10.5232 37.694 8 41 8C44.306 8 47 10.5232 47 14ZM44.3732 14C44.3732 11.8408 42.8113 10.3634 41 10.3634C39.1887 10.3634 37.6268 11.8408 37.6268 14C37.6268 16.1361 39.1887 17.6366 41 17.6366C42.8113 17.6384 44.3732 16.1379 44.3732 14Z" fill="#FBBC05"/>
<path d="M60 8.37496V19.5301C60 24.1178 57.2728 26 54.0472 26C51.0125 26 49.1857 23.9763 48.4984 22.3294L50.8939 21.3405C51.3201 22.3515 52.365 23.5517 54.0472 23.5517C56.1112 23.5517 57.3914 22.2816 57.3914 19.905V19.0117H57.2969C56.6799 19.7653 55.4942 20.4234 54.0009 20.4234C50.8698 20.4234 48 17.7178 48 14.2347C48 10.7295 50.8698 8 54.0009 8C55.4942 8 56.6799 8.65802 57.2969 9.38773H57.3914V8.37312H60V8.37496ZM57.5804 14.2365C57.5804 12.0474 56.1093 10.4483 54.2362 10.4483C52.339 10.4483 50.7494 12.0474 50.7494 14.2365C50.7494 16.4017 52.339 17.9769 54.2362 17.9769C56.1112 17.9788 57.5804 16.4017 57.5804 14.2365Z" fill="#4285F4"/>
<path d="M64 2V20H61V2H64Z" fill="#34A853"/>
<path d="M73.8543 15.9763L75.8871 17.34C75.2324 18.3167 73.6514 20 70.9182 20C67.5303 20 65 17.3631 65 14C65 10.4309 67.5515 8 70.6235 8C73.7185 8 75.2307 10.4771 75.7283 11.8177L76 12.4996L68.0261 15.8183C68.6367 17.0222 69.5842 17.6366 70.9164 17.6366C72.2504 17.6366 73.1768 16.976 73.8543 15.9763ZM67.5974 13.8171L72.928 11.5904C72.6351 10.8411 71.7528 10.3173 70.7153 10.3173C69.3813 10.3173 67.5303 11.4981 67.5974 13.8171Z" fill="#EA4335"/>
<path d="M18.302 48H16.86L14.662 44.248H12.352V48H11.05V38.2H14.97C15.81 38.2 16.5287 38.4987 17.126 39.096C17.7233 39.684 18.022 40.398 18.022 41.238C18.022 41.8727 17.8307 42.4513 17.448 42.974C17.056 43.506 16.5707 43.8747 15.992 44.08L18.302 48ZM14.97 39.418H12.352V43.072H14.97C15.4553 43.072 15.866 42.8947 16.202 42.54C16.5473 42.1853 16.72 41.7513 16.72 41.238C16.72 40.7247 16.5473 40.2953 16.202 39.95C15.866 39.5953 15.4553 39.418 14.97 39.418ZM20.9106 43.66V46.768H25.4606V48H19.6086V38.2H25.3906V39.432H20.9106V42.442H25.0406V43.66H20.9106ZM31.0644 48H29.5944L26.0944 38.2H27.4944L30.3364 46.376L33.1644 38.2H34.5784L31.0644 48ZM35.7277 48V38.2H37.0297V48H35.7277ZM40.434 43.66V46.768H44.984V48H39.132V38.2H44.914V39.432H40.434V42.442H44.564V43.66H40.434ZM50.1819 48H48.6699L45.8559 38.2H47.2279L49.4679 46.264L51.8479 38.2H53.1639L55.5439 46.264L57.7839 38.2H59.1559L56.3419 48H54.8299L52.5059 40.174L50.1819 48ZM63.4464 48.182C62.5318 48.182 61.7478 47.972 61.0944 47.552C60.4504 47.1227 59.9978 46.53 59.7364 45.774L60.8564 45.13C61.2298 46.3153 62.1024 46.908 63.4744 46.908C64.1371 46.908 64.6458 46.7727 65.0004 46.502C65.3644 46.2313 65.5464 45.8627 65.5464 45.396C65.5464 44.9387 65.3691 44.5887 65.0144 44.346C64.6971 44.1313 64.1044 43.884 63.2364 43.604L62.2984 43.296C62.0931 43.212 61.8224 43.0907 61.4864 42.932C61.1598 42.764 60.9218 42.596 60.7724 42.428C60.3618 41.98 60.1564 41.434 60.1564 40.79C60.1564 39.9313 60.4551 39.2593 61.0524 38.774C61.6498 38.27 62.3778 38.018 63.2364 38.018C64.0018 38.018 64.6738 38.2093 65.2524 38.592C65.8311 38.9747 66.2651 39.4973 66.5544 40.16L65.4624 40.79C65.0424 39.782 64.3004 39.278 63.2364 39.278C62.7044 39.278 62.2751 39.4087 61.9484 39.67C61.6218 39.9313 61.4584 40.286 61.4584 40.734C61.4584 41.1633 61.6124 41.49 61.9204 41.714C62.2378 41.9473 62.7698 42.1807 63.5164 42.414L64.0904 42.596C64.4078 42.7173 64.5804 42.7827 64.6084 42.792C64.9071 42.904 65.2338 43.058 65.5884 43.254C65.8404 43.394 66.0924 43.6087 66.3444 43.898C66.6711 44.2247 66.8344 44.7147 66.8344 45.368C66.8344 46.2267 66.5218 46.9127 65.8964 47.426C65.2618 47.93 64.4451 48.182 63.4464 48.182Z" fill="#121212"/>
</svg>
