<svg width="78" height="28" viewBox="0 0 78 28" fill="none" xmlns="http://www.w3.org/2000/svg">
<path d="M11.4384 12.2686V9.67273H20.3551C20.4461 10.1307 20.5 10.6738 20.5 11.2639C20.5 13.2099 19.9539 15.6193 18.1928 17.3354C16.4801 19.0732 14.2936 20 11.392 20C6.01779 20 1.5 15.7369 1.5 10.5C1.5 5.26305 6.01779 1 11.392 1C14.3642 1 16.4801 2.135 18.0739 3.61757L16.1958 5.44769C15.0552 4.40501 13.5097 3.59404 11.392 3.59404C7.46862 3.59404 4.40164 6.67502 4.40164 10.5C4.40164 14.325 7.46862 17.406 11.392 17.406C13.9369 17.406 15.3859 16.4103 16.3147 15.5052C17.0708 14.7685 17.5686 13.7131 17.7618 12.2686H11.4384Z" fill="#4285F4"/>
<path d="M34 14C34 17.4555 31.306 20 28 20C24.694 20 22 17.4537 22 14C22 10.5232 24.694 8 28 8C31.306 8 34 10.5232 34 14ZM31.3732 14C31.3732 11.8408 29.8113 10.3634 28 10.3634C26.1887 10.3634 24.6268 11.8408 24.6268 14C24.6268 16.1361 26.1887 17.6366 28 17.6366C29.8113 17.6384 31.3732 16.1379 31.3732 14Z" fill="#EA4335"/>
<path d="M47 14C47 17.4555 44.306 20 41 20C37.694 20 35 17.4537 35 14C35 10.5232 37.694 8 41 8C44.306 8 47 10.5232 47 14ZM44.3732 14C44.3732 11.8408 42.8113 10.3634 41 10.3634C39.1887 10.3634 37.6268 11.8408 37.6268 14C37.6268 16.1361 39.1887 17.6366 41 17.6366C42.8113 17.6384 44.3732 16.1379 44.3732 14Z" fill="#FBBC05"/>
<path d="M60 8.37496V19.5301C60 24.1178 57.2728 26 54.0472 26C51.0125 26 49.1857 23.9763 48.4984 22.3294L50.8939 21.3405C51.3201 22.3515 52.365 23.5517 54.0472 23.5517C56.1112 23.5517 57.3914 22.2816 57.3914 19.905V19.0117H57.2969C56.6799 19.7653 55.4942 20.4234 54.0009 20.4234C50.8698 20.4234 48 17.7178 48 14.2347C48 10.7295 50.8698 8 54.0009 8C55.4942 8 56.6799 8.65802 57.2969 9.38773H57.3914V8.37312H60V8.37496ZM57.5804 14.2365C57.5804 12.0474 56.1093 10.4483 54.2362 10.4483C52.339 10.4483 50.7494 12.0474 50.7494 14.2365C50.7494 16.4017 52.339 17.9769 54.2362 17.9769C56.1112 17.9788 57.5804 16.4017 57.5804 14.2365Z" fill="#4285F4"/>
<path d="M64 2V20H61V2H64Z" fill="#34A853"/>
<path d="M73.8543 15.9763L75.8871 17.34C75.2324 18.3167 73.6514 20 70.9182 20C67.5303 20 65 17.3631 65 14C65 10.4309 67.5515 8 70.6235 8C73.7185 8 75.2307 10.4771 75.7283 11.8177L76 12.4996L68.0261 15.8183C68.6367 17.0222 69.5842 17.6366 70.9164 17.6366C72.2504 17.6366 73.1768 16.976 73.8543 15.9763ZM67.5974 13.8171L72.928 11.5904C72.6351 10.8411 71.7528 10.3173 70.7153 10.3173C69.3813 10.3173 67.5303 11.4981 67.5974 13.8171Z" fill="#EA4335"/>
</svg>
